<?xml version="1.0" standalone="no"?><!DOCTYPE svg PUBLIC "-//W3C//DTD SVG 1.1//EN" "http://www.w3.org/Graphics/SVG/1.1/DTD/svg11.dtd"><svg t="1627550764363" class="icon" viewBox="0 0 1024 1024" version="1.1" xmlns="http://www.w3.org/2000/svg" p-id="2315" xmlns:xlink="http://www.w3.org/1999/xlink" width="128" height="128"><defs><style type="text/css">@font-face { font-family: feedback-iconfont; src: url("//at.alicdn.com/t/font_1031158_1uhr8ri0pk5.eot?#iefix") format("embedded-opentype"), url("//at.alicdn.com/t/font_1031158_1uhr8ri0pk5.woff2") format("woff2"), url("//at.alicdn.com/t/font_1031158_1uhr8ri0pk5.woff") format("woff"), url("//at.alicdn.com/t/font_1031158_1uhr8ri0pk5.ttf") format("truetype"), url("//at.alicdn.com/t/font_1031158_1uhr8ri0pk5.svg#iconfont") format("svg"); }
</style></defs><path d="M512 66c127.578 0 231 103.422 231 231S639.578 528 512 528 281 424.578 281 297 384.422 66 512 66z m0 54c-97.754 0-177 79.246-177 177s79.246 177 177 177 177-79.246 177-177-79.246-177-177-177zM516 551c32.294 0 59.658 3.017 86.148 9.408 14.496 3.497 23.412 18.083 19.915 32.579-3.498 14.496-18.084 23.412-32.58 19.915-15.409-3.718-31.276-6.084-48.972-7.182L518 692.171 547 959h-70l29-266.829-22.348-85.83c-82.826 6.903-159.332 40.279-222.63 95.628-69.049 60.38-118.91 144.158-141.039 237.158-3.452 14.506-18.01 23.468-32.517 20.016-14.506-3.451-23.468-18.01-20.016-32.516 24.701-103.812 80.438-197.462 158.026-265.308C306.598 590.383 407.448 551 516 551z" p-id="2316"></path><path d="M670.242 931.792v-268.96l22.46-58.424c4.943-12.858-1.473-27.288-14.331-32.231a24.943 24.943 0 0 0-2.49-0.81c-15.454-4.145-31.644 3.464-38.316 18.007L561.51 755.158c-6.384 13.914-1.428 30.405 11.57 38.494 11.13 6.929 25.77 3.522 32.699-7.61 0.402-0.647 0.774-1.313 1.112-1.995 4.422-8.914 8.38-16.096 11.878-21.547v169.292c0 14.214 11.523 25.737 25.737 25.737 14.214 0 25.737-11.523 25.737-25.737z m288.135-126.328c0-13.761-11.156-24.917-24.917-24.917h-29.429v-89.004h18.662c13.818 0 25.02-11.202 25.02-25.02 0-13.817-11.202-25.02-25.02-25.02h-18.662v-49.32c0-14.328-11.615-25.943-25.942-25.943-14.328 0-25.943 11.615-25.943 25.943v49.32h-61.113v-49.32c0-14.328-11.615-25.943-25.942-25.943-14.328 0-25.943 11.615-25.943 25.943v49.32h-18.457c-13.817 0-25.02 11.203-25.02 25.02 0 13.818 11.202 25.02 25.02 25.02h18.457v89.004H709.72c-13.762 0-24.917 11.156-24.917 24.917 0 13.761 11.155 24.917 24.917 24.917h223.74c13.761 0 24.917-11.156 24.917-24.917z m-106.23-24.917h-61.114v-89.004h61.113v89.004z m85.107 156.27c10.764-9.895 11.469-26.641 1.575-37.405a26.472 26.472 0 0 0-0.748-0.781l-46.823-46.937c-10.17-10.195-26.455-10.902-37.47-1.626-10.251 8.632-11.563 23.94-2.931 34.19 0.252 0.3 0.512 0.594 0.779 0.881l46.55 50.131c10.38 11.178 27.838 11.868 39.068 1.546z m-196.05 1.066l47.375-53.105c8.62-9.663 7.774-24.483-1.889-33.102a23.445 23.445 0 0 0-2.014-1.608c-12.214-8.69-28.972-7.007-39.213 3.938L701.49 901c-10.31 11.018-9.736 28.308 1.282 38.617l0.077 0.072c10.88 10.103 27.89 9.473 37.993-1.408 0.122-0.13 0.242-0.263 0.362-0.397z" p-id="2317"></path></svg>